<svg xmlns="http://www.w3.org/2000/svg" viewBox="0 0 200 200" width="100%" height="100%">
      <rect width="200" height="200" rx="24" fill="#f8fafc"/>
      <g filter="drop-shadow(0 8px 12px rgba(15,23,42,0.12))">
        <!-- Chair backing outline -->
        <path d="M70 45 C70 35, 130 35, 130 45 V105 C130 115, 70 115, 70 105 Z" fill="#1e293b"/>
        <!-- Lumbar mesh support -->
        <path d="M75 50 C75 42, 125 42, 125 50 V100 C125 108, 75 108, 75 100 Z" fill="#334155"/>
        <line x1="100" y1="42" x2="100" y2="108" stroke="#1e293b" stroke-width="4"/>
        <path d="M75 80 Q100 95 125 80" fill="none" stroke="#2563eb" stroke-width="3"/>
        <!-- Headrest -->
        <rect x="85" y="24" width="30" height="15" rx="5" fill="#1e293b"/>
        <rect x="97" y="37" width="6" height="10" fill="#475569"/>
        <!-- Armrests -->
        <path d="M58 85 H68 V105 H58 Z" fill="#475569"/>
        <path d="M132 85 H142 V105 H132 Z" fill="#475569"/>
        <path d="M68 95 Q60 95 60 110" stroke="#475569" stroke-width="4" fill="none"/>
        <path d="M132 95 Q140 95 140 110" stroke="#475569" stroke-width="4" fill="none"/>
        <!-- Seat Cushion -->
        <rect x="64" y="108" width="72" height="12" rx="4" fill="#1e293b" stroke="#334155" stroke-width="1"/>
        <!-- Hydraulic Shaft -->
        <rect x="96" y="120" width="8" height="25" fill="#475569"/>
        <!-- Wheel Base Star -->
        <path d="M96 145 L70 160 M104 145 L130 160 M100 145 V165 M96 145 L65 142 M104 145 L135 142" stroke="#1e293b" stroke-width="6" stroke-linecap="round"/>
        <!-- Caster wheels -->
        <circle cx="68" cy="162" r="5" fill="#475569"/>
        <circle cx="132" cy="162" r="5" fill="#475569"/>
        <circle cx="100" cy="168" r="5" fill="#475569"/>
      </g>
    </svg>