<svg xmlns="http://www.w3.org/2000/svg" viewBox="0 0 200 200" width="100%" height="100%">
      <defs>
        <linearGradient id="caseGrad" x1="0%" y1="0%" x2="100%" y2="100%">
          <stop offset="0%" stop-color="#3b82f6" />
          <stop offset="100%" stop-color="#1d4ed8" />
        </linearGradient>
      </defs>
      <rect width="200" height="200" rx="24" fill="#f8fafc"/>
      <g filter="drop-shadow(0 10px 15px rgba(37,99,235,0.18))">
        <!-- Open case -->
        <rect x="60" y="50" width="80" height="100" rx="25" fill="#1e293b" stroke="#334155" stroke-width="2"/>
        <!-- Open Lid background -->
        <path d="M60 75 C60 50, 140 50, 140 75 Z" fill="#334155"/>
        <!-- Inner docking slots -->
        <ellipse cx="82" cy="95" rx="14" ry="24" fill="#0f172a"/>
        <ellipse cx="118" cy="95" rx="14" ry="24" fill="#0f172a"/>
        <!-- Glowing LED status -->
        <circle cx="100" cy="132" r="3" fill="#10b981"/>
        <!-- Earbud Left -->
        <g transform="translate(0, 5)">
          <circle cx="82" cy="85" r="10" fill="url(#caseGrad)"/>
          <path d="M82 85 C82 95, 87 105, 87 110" stroke="url(#caseGrad)" stroke-width="6" stroke-linecap="round"/>
          <circle cx="82" cy="85" r="4" fill="#f8fafc"/>
        </g>
        <!-- Earbud Right -->
        <g transform="translate(0, 5)">
          <circle cx="118" cy="85" r="10" fill="url(#caseGrad)"/>
          <path d="M118 85 C118 95, 113 105, 113 110" stroke="url(#caseGrad)" stroke-width="6" stroke-linecap="round"/>
          <circle cx="118" cy="85" r="4" fill="#f8fafc"/>
        </g>
      </g>
    </svg>