<svg xmlns="http://www.w3.org/2000/svg" viewBox="0 0 200 200" width="100%" height="100%">
      <defs>
        <linearGradient id="hdpGrad" x1="0%" y1="0%" x2="100%" y2="100%">
          <stop offset="0%" stop-color="#2563eb" />
          <stop offset="100%" stop-color="#1d4ed8" />
        </linearGradient>
      </defs>
      <rect width="200" height="200" rx="24" fill="#f8fafc"/>
      <g filter="drop-shadow(0 10px 16px rgba(37,99,235,0.18))">
        <!-- Headband -->
        <path d="M50 110 A60 60 0 0 1 150 110" fill="none" stroke="#1e293b" stroke-width="10" stroke-linecap="round"/>
        <path d="M50 110 A60 60 0 0 1 150 110" fill="none" stroke="#3b82f6" stroke-width="4" stroke-linecap="round"/>
        <!-- Metal adjusters -->
        <rect x="42" y="100" width="6" height="20" rx="2" fill="#94a3b8"/>
        <rect x="152" y="100" width="6" height="20" rx="2" fill="#94a3b8"/>
        <!-- Ear Cups -->
        <rect x="30" y="105" width="22" height="45" rx="11" fill="url(#hdpGrad)"/>
        <rect x="148" y="105" width="22" height="45" rx="11" fill="url(#hdpGrad)"/>
        <!-- Soft cushions -->
        <rect x="48" y="110" width="8" height="35" rx="4" fill="#1e293b"/>
        <rect x="144" y="110" width="8" height="35" rx="4" fill="#1e293b"/>
        <!-- Sound waves -->
        <path d="M20 115 A25 25 0 0 0 20 140" fill="none" stroke="#60a5fa" stroke-width="2" stroke-linecap="round" opacity="0.7"/>
        <path d="M180 115 A25 25 0 0 1 180 140" fill="none" stroke="#60a5fa" stroke-width="2" stroke-linecap="round" opacity="0.7"/>
      </g>
    </svg>