<svg xmlns="http://www.w3.org/2000/svg" viewBox="0 0 200 200" width="100%" height="100%">
      <rect width="200" height="200" rx="24" fill="#f8fafc"/>
      <g filter="drop-shadow(0 8px 12px rgba(15,23,42,0.1))">
        <!-- USB cable -->
        <path d="M100 130 V175 C100 180, 80 180, 80 160" stroke="#475569" stroke-width="6" stroke-linecap="round" fill="none"/>
        <rect x="73" y="145" width="14" height="20" rx="2" fill="#1e293b"/>
        <!-- Hub body -->
        <rect x="60" y="45" width="80" height="95" rx="8" fill="#1e293b"/>
        <rect x="65" y="50" width="70" height="85" rx="6" fill="#334155"/>
        <!-- Indicator light -->
        <circle cx="100" cy="60" r="3" fill="#3b82f6"/>
        <!-- USB Ports -->
        <rect x="75" y="75" width="20" height="8" rx="1" fill="#0f172a"/>
        <rect x="75" y="92" width="20" height="8" rx="1" fill="#0f172a"/>
        <rect x="75" y="109" width="20" height="8" rx="1" fill="#0f172a"/>
        <!-- USB Core accents -->
        <rect x="77" y="78" width="16" height="2" fill="#2563eb"/>
        <rect x="77" y="95" width="16" height="2" fill="#2563eb"/>
        <rect x="77" y="112" width="16" height="2" fill="#2563eb"/>
        <!-- HDMI label and port on side -->
        <rect x="110" y="85" width="15" height="15" rx="2" fill="#0f172a"/>
        <text x="117" y="120" font-family="sans-serif" font-size="8" fill="#94a3b8" text-anchor="middle" font-weight="bold">4K</text>
      </g>
    </svg>