<svg xmlns="http://www.w3.org/2000/svg" viewBox="0 0 200 200" width="100%" height="100%">
      <defs>
        <linearGradient id="kbdGrad" x1="0%" y1="0%" x2="100%" y2="100%">
          <stop offset="0%" stop-color="#1e293b" />
          <stop offset="100%" stop-color="#0f172a" />
        </linearGradient>
        <linearGradient id="keyGrad" x1="0%" y1="0%" x2="100%" y2="100%">
          <stop offset="0%" stop-color="#3b82f6" />
          <stop offset="100%" stop-color="#2563eb" />
        </linearGradient>
        <filter id="glow" x="-20%" y="-20%" width="140%" height="140%">
          <feGaussianBlur stdDeviation="5" result="blur"/>
          <feComposite in="SourceGraphic" in2="blur" operator="over"/>
        </filter>
      </defs>
      <rect width="200" height="200" rx="24" fill="#f8fafc"/>
      <g filter="drop-shadow(0px 8px 12px rgba(15,23,42,0.15))">
        <rect x="25" y="60" width="150" height="80" rx="10" fill="url(#kbdGrad)" stroke="#334155" stroke-width="2"/>
        <rect x="30" y="65" width="140" height="70" rx="6" fill="none" stroke="#2563eb" stroke-width="1" opacity="0.6" filter="url(#glow)"/>
        <!-- Keyboard keys -->
        <rect x="35" y="72" width="12" height="10" rx="2" fill="url(#keyGrad)"/>
        <rect x="51" y="72" width="12" height="10" rx="2" fill="#334155"/>
        <rect x="67" y="72" width="12" height="10" rx="2" fill="#334155"/>
        <rect x="83" y="72" width="12" height="10" rx="2" fill="#334155"/>
        <rect x="99" y="72" width="12" height="10" rx="2" fill="#334155"/>
        <rect x="115" y="72" width="12" height="10" rx="2" fill="#334155"/>
        <rect x="131" y="72" width="12" height="10" rx="2" fill="#334155"/>
        <rect x="147" y="72" width="18" height="10" rx="2" fill="url(#keyGrad)"/>

        <rect x="35" y="86" width="16" height="10" rx="2" fill="#334155"/>
        <rect x="55" y="86" width="12" height="10" rx="2" fill="#475569"/>
        <rect x="71" y="86" width="12" height="10" rx="2" fill="#475569"/>
        <rect x="87" y="86" width="12" height="10" rx="2" fill="#475569"/>
        <rect x="103" y="86" width="12" height="10" rx="2" fill="#475569"/>
        <rect x="119" y="86" width="12" height="10" rx="2" fill="#475569"/>
        <rect x="135" y="86" width="12" height="10" rx="2" fill="#475569"/>
        <rect x="151" y="86" width="14" height="10" rx="2" fill="#334155"/>

        <rect x="35" y="100" width="18" height="10" rx="2" fill="#334155"/>
        <rect x="57" y="100" width="12" height="10" rx="2" fill="#475569"/>
        <rect x="73" y="100" width="12" height="10" rx="2" fill="#475569"/>
        <rect x="89" y="100" width="12" height="10" rx="2" fill="#475569"/>
        <rect x="105" y="100" width="12" height="10" rx="2" fill="#475569"/>
        <rect x="121" y="100" width="12" height="10" rx="2" fill="#475569"/>
        <rect x="137" y="100" width="28" height="10" rx="2" fill="url(#keyGrad)"/>

        <rect x="35" y="114" width="14" height="10" rx="2" fill="url(#keyGrad)"/>
        <rect x="53" y="114" width="12" height="10" rx="2" fill="#334155"/>
        <rect x="69" y="114" width="62" height="10" rx="2" fill="url(#keyGrad)"/>
        <rect x="135" y="114" width="12" height="10" rx="2" fill="#334155"/>
        <rect x="151" y="114" width="14" height="10" rx="2" fill="url(#keyGrad)"/>
      </g>
    </svg>