<svg xmlns="http://www.w3.org/2000/svg" viewBox="0 0 200 200" width="100%" height="100%">
      <defs>
        <linearGradient id="screenGrad" x1="0%" y1="0%" x2="100%" y2="100%">
          <stop offset="0%" stop-color="#1e293b" />
          <stop offset="100%" stop-color="#0f172a" />
        </linearGradient>
        <linearGradient id="ringGrad" x1="0%" y1="0%" x2="100%" y2="100%">
          <stop offset="0%" stop-color="#3b82f6" />
          <stop offset="100%" stop-color="#ec4899" />
        </linearGradient>
      </defs>
      <rect width="200" height="200" rx="24" fill="#f8fafc"/>
      <g filter="drop-shadow(0 8px 16px rgba(15,23,42,0.12))">
        <!-- Straps -->
        <rect x="75" y="20" width="50" height="160" rx="10" fill="#334155"/>
        <rect x="80" y="20" width="40" height="160" fill="#1e293b" opacity="0.3"/>
        <!-- Dial Frame -->
        <rect x="55" y="50" width="90" height="100" rx="28" fill="#475569" stroke="#64748b" stroke-width="2"/>
        <!-- Screen -->
        <rect x="60" y="55" width="80" height="90" rx="23" fill="url(#screenGrad)"/>
        <!-- Dial Crown Button -->
        <rect x="144" y="85" width="4" height="30" rx="2" fill="#334155"/>
        <!-- Dynamic UI Interface -->
        <circle cx="100" cy="100" r="30" fill="none" stroke="#334155" stroke-width="4"/>
        <circle cx="100" cy="100" r="30" fill="none" stroke="url(#ringGrad)" stroke-width="4" stroke-dasharray="140 180"/>
        <!-- Heartrate indicator -->
        <path d="M92 105 L96 95 L100 108 L104 92 L108 103 L112 100" fill="none" stroke="#ec4899" stroke-width="2" stroke-linecap="round"/>
        <text x="100" y="128" font-family="sans-serif" font-size="10" fill="#f8fafc" text-anchor="middle" font-weight="bold">10:45</text>
        <circle cx="100" cy="68" r="3" fill="#10b981"/>
      </g>
    </svg>